<svg width="11" height="6" viewBox="0 0 11 6" fill="none" xmlns="http://www.w3.org/2000/svg">
<path d="M10.0277 4.67591C10.028 4.83168 9.97376 4.98264 9.87437 5.10258C9.81841 5.17008 9.74967 5.22588 9.67211 5.26678C9.59454 5.30769 9.50967 5.33288 9.42235 5.34093C9.33504 5.34898 9.24699 5.33973 9.16325 5.3137C9.07952 5.28767 9.00174 5.24538 8.93437 5.18924L5.36104 2.20258L1.78104 5.08258C1.71285 5.13795 1.63438 5.17931 1.55016 5.20426C1.46593 5.22922 1.3776 5.23728 1.29025 5.22799C1.2029 5.21869 1.11824 5.19223 1.04115 5.15011C0.964062 5.108 0.896054 5.05106 0.841039 4.98258C0.780348 4.9136 0.73457 4.83282 0.706577 4.74531C0.678584 4.65781 0.668982 4.56546 0.678372 4.47406C0.687762 4.38266 0.715942 4.2942 0.761143 4.21421C0.806344 4.13422 0.867591 4.06444 0.941039 4.00924L4.94104 0.789243C5.06033 0.691189 5.20996 0.637584 5.36437 0.637584C5.51879 0.637584 5.66842 0.691189 5.78771 0.789243L9.78771 4.12258C9.86838 4.18945 9.93216 4.27441 9.97386 4.37055C10.0156 4.46669 10.034 4.57131 10.0277 4.67591Z" fill="#FFFEFE"/>
</svg>
