<svg width="11" height="6" viewBox="0 0 11 6" fill="none" xmlns="http://www.w3.org/2000/svg">
<path d="M0.67609 1.30553C0.675786 1.14977 0.730036 0.998809 0.829423 0.878868C0.885389 0.811362 0.954123 0.755561 1.03169 0.71466C1.10925 0.673759 1.19412 0.648561 1.28144 0.640511C1.36876 0.63246 1.45681 0.641715 1.54054 0.667744C1.62428 0.693774 1.70206 0.736067 1.76942 0.792201L5.34276 3.77887L8.92276 0.898869C8.99095 0.843492 9.06941 0.802137 9.15364 0.777183C9.23787 0.752228 9.32619 0.744166 9.41355 0.753458C9.5009 0.762751 9.58555 0.789216 9.66264 0.831332C9.73973 0.873447 9.80774 0.930384 9.86276 0.998869C9.92345 1.06785 9.96923 1.14862 9.99722 1.23613C10.0252 1.32364 10.0348 1.41599 10.0254 1.50738C10.016 1.59878 9.98785 1.68725 9.94265 1.76724C9.89745 1.84722 9.83621 1.91701 9.76276 1.9722L5.76276 5.1922C5.64347 5.29026 5.49384 5.34386 5.33942 5.34386C5.18501 5.34386 5.03538 5.29026 4.91609 5.1922L0.91609 1.85887C0.835412 1.79199 0.771636 1.70703 0.729937 1.61089C0.688238 1.51475 0.669789 1.41014 0.67609 1.30553Z" fill="white"/>
</svg>
