<svg width="16" height="16" viewBox="0 0 16 16" fill="none" xmlns="http://www.w3.org/2000/svg">
<g clip-path="url(#clip0_57069_3658)">
<path d="M13.9999 4.00096H10.6666V2.88763C10.6509 2.46084 10.4667 2.05767 10.1543 1.76649C9.84188 1.47531 9.42675 1.31989 8.99992 1.33429H6.99992C6.57309 1.31989 6.15796 1.47531 5.84554 1.76649C5.53312 2.05767 5.34889 2.46084 5.33325 2.88763V4.00096H1.99992C1.82311 4.00096 1.65354 4.0712 1.52851 4.19622C1.40349 4.32125 1.33325 4.49082 1.33325 4.66763C1.33325 4.84444 1.40349 5.01401 1.52851 5.13903C1.65354 5.26405 1.82311 5.33429 1.99992 5.33429H2.66659V12.6676C2.66659 13.1981 2.8773 13.7068 3.25237 14.0818C3.62744 14.4569 4.13615 14.6676 4.66659 14.6676H11.3333C11.8637 14.6676 12.3724 14.4569 12.7475 14.0818C13.1225 13.7068 13.3333 13.1981 13.3333 12.6676V5.33429H13.9999C14.1767 5.33429 14.3463 5.26405 14.4713 5.13903C14.5963 5.01401 14.6666 4.84444 14.6666 4.66763C14.6666 4.49082 14.5963 4.32125 14.4713 4.19622C14.3463 4.0712 14.1767 4.00096 13.9999 4.00096ZM6.66659 2.88763C6.66659 2.78096 6.80659 2.66763 6.99992 2.66763H8.99992C9.19325 2.66763 9.33325 2.78096 9.33325 2.88763V4.00096H6.66659V2.88763ZM11.9999 12.6676C11.9999 12.8444 11.9297 13.014 11.8047 13.139C11.6796 13.2641 11.5101 13.3343 11.3333 13.3343H4.66659C4.48977 13.3343 4.32021 13.2641 4.19518 13.139C4.07016 13.014 3.99992 12.8444 3.99992 12.6676V5.33429H11.9999V12.6676Z" fill="white"/>
</g>
<defs>
<clipPath id="clip0_57069_3658">
<rect width="16" height="16" fill="white" transform="translate(0 0.000976562)"/>
</clipPath>
</defs>
</svg>
